<svg width="16" height="16" viewBox="0 0 16 16" fill="none" xmlns="http://www.w3.org/2000/svg">
<path d="M7.99914 9.33163C7.63095 9.33163 7.33247 9.03315 7.33247 8.66496V6.66496C7.33247 6.29677 7.63095 5.99829 7.99914 5.99829C8.36733 5.99829 8.6658 6.29677 8.6658 6.66496V8.66496C8.6658 9.03315 8.36733 9.33163 7.99914 9.33163Z" fill="white"/>
<path d="M6.99914 10.9983C6.99914 10.446 7.44685 9.99829 7.99914 9.99829C8.55142 9.99829 8.99914 10.446 8.99914 10.9983C8.99914 11.5506 8.55142 11.9983 7.99914 11.9983C7.44685 11.9983 6.99914 11.5506 6.99914 10.9983Z" fill="white"/>
<path d="M6.81925 2.14203C7.31913 1.19224 8.67914 1.19224 9.17903 2.14202L14.7415 12.7106C15.2088 13.5985 14.5649 14.665 13.5616 14.665H2.43671C1.43337 14.665 0.789516 13.5985 1.25682 12.7106L6.81925 2.14203ZM13.5616 13.3316L7.99914 2.76302L2.43671 13.3316L13.5616 13.3316Z" fill="white"/>
</svg>
