<svg width="17" height="17" viewBox="0 0 17 17" fill="none" xmlns="http://www.w3.org/2000/svg">
<rect width="16.2188" height="16.2188" fill="white"/>
<path fill-rule="evenodd" clip-rule="evenodd" d="M15.57 8.28493C15.57 7.73386 15.5205 7.20399 15.4287 6.69531H8.10938V9.70146H12.2918C12.1117 10.6729 11.5642 11.496 10.7411 12.047V13.997H13.2527C14.7222 12.644 15.57 10.6517 15.57 8.28493Z" fill="#4285F4"/>
<path fill-rule="evenodd" clip-rule="evenodd" d="M8.10894 15.8808C10.2072 15.8808 11.9664 15.1849 13.2523 13.998L10.7407 12.0481C10.0448 12.5144 9.15456 12.7899 8.10894 12.7899C6.08483 12.7899 4.37157 11.4228 3.76044 9.58594H1.16406V11.5995C2.44282 14.1393 5.071 15.8808 8.10894 15.8808Z" fill="#34A853"/>
<path fill-rule="evenodd" clip-rule="evenodd" d="M3.76088 9.58387C3.60545 9.11758 3.51713 8.6195 3.51713 8.10729C3.51713 7.59508 3.60545 7.097 3.76088 6.63071V4.61719H1.16449C0.638152 5.66634 0.337891 6.85326 0.337891 8.10729C0.337891 9.36133 0.638152 10.5482 1.16449 11.5974L3.76088 9.58387Z" fill="#FBBC05"/>
<path fill-rule="evenodd" clip-rule="evenodd" d="M8.10894 3.42687C9.24994 3.42687 10.2744 3.81898 11.0798 4.58906L13.3088 2.36006C11.9629 1.10602 10.2037 0.335938 8.10894 0.335938C5.071 0.335938 2.44283 2.07746 1.16406 4.61732L3.76044 6.63084C4.37157 4.79394 6.08483 3.42687 8.10894 3.42687Z" fill="#EA4335"/>
</svg>
